<svg width="4" height="58" viewBox="0 0 4 58" fill="none" xmlns="http://www.w3.org/2000/svg">
<path d="M1 1H4" stroke="#0376B7" stroke-width="0.3"/>
<path d="M1 8L3 8" stroke="#0376B7" stroke-width="0.3"/>
<path d="M1 3H2" stroke="#0376B7" stroke-width="0.3"/>
<path d="M1 6H2" stroke="#0376B7" stroke-width="0.3"/>
<path d="M1 10H2" stroke="#0376B7" stroke-width="0.3"/>
<path d="M1 13H2" stroke="#0376B7" stroke-width="0.3"/>
<path d="M1 17H2" stroke="#0376B7" stroke-width="0.3"/>
<path d="M1 20H2" stroke="#0376B7" stroke-width="0.3"/>
<path d="M1 24H2" stroke="#0376B7" stroke-width="0.3"/>
<path d="M1 27H2" stroke="#0376B7" stroke-width="0.3"/>
<path d="M1 31H2" stroke="#0376B7" stroke-width="0.3"/>
<path d="M1 34H2" stroke="#0376B7" stroke-width="0.3"/>
<path d="M1 38H2" stroke="#0376B7" stroke-width="0.3"/>
<path d="M1 41H2" stroke="#0376B7" stroke-width="0.3"/>
<path d="M1 45H2" stroke="#0376B7" stroke-width="0.3"/>
<path d="M1 48H2" stroke="#0376B7" stroke-width="0.3"/>
<path d="M1 52H2" stroke="#0376B7" stroke-width="0.3"/>
<path d="M1 55H2" stroke="#0376B7" stroke-width="0.3"/>
<path d="M1 22H3" stroke="#0376B7" stroke-width="0.3"/>
<path d="M1 36H3" stroke="#0376B7" stroke-width="0.3"/>
<path d="M1 50H3" stroke="#0376B7" stroke-width="0.3"/>
<path d="M1 15H4" stroke="#0376B7" stroke-width="0.3"/>
<path d="M1 43H4" stroke="#0376B7" stroke-width="0.3"/>
<path d="M1 29H4" stroke="#0376B7" stroke-width="0.3"/>
<path d="M1 57H4" stroke="#0376B7" stroke-width="0.3"/>
<path d="M1 57L1 1" stroke="#0376B7" stroke-width="0.3"/>
</svg>
